<svg xmlns="http://www.w3.org/2000/svg" viewBox="0 0 300" 300" width="300" height="300">
  <!-- Low Bias, Low Variance -->
  <g>
    
    <circle cx="80" cy="80" r="50" fill="none" stroke="#444" stroke-width="1"/>
    <circle cx="80" cy="80" r="35" fill="none" stroke="#444" stroke-width="1"/>
    <circle cx="80" cy="80" r="20" fill="none" stroke="#444" stroke-width="1"/>
    <circle cx="80" cy="80" r="5" fill="#22C55E"/>
    <circle cx="78.28574664226453" cy="81.7811821838866" r="4" fill="#F472B6"/>
    <circle cx="84.5993594428178" cy="78.24526561812955" r="4" fill="#F472B6"/>
    <circle cx="88.7059885762615" cy="73.46158251498989" r="4" fill="#F472B6"/>
    <circle cx="74.51770665738442" cy="75.9386250488787" r="4" fill="#F472B6"/>
    <circle cx="78.58329546467827" cy="80.12032706262117" r="4" fill="#F472B6"/>
    <circle cx="85.74035200131023" cy="74.06613743972139" r="4" fill="#F472B6"/>
    <circle cx="72.98419228424696" cy="70.93928760143778" r="4" fill="#F472B6"/>
    <circle cx="83.12704129157558" cy="77.90598989819433" r="4" fill="#F472B6"/>
    <text x="80" y="155" fill="#22C55E" font-size="10" text-anchor="middle">Low Bias</text>
    <text x="80" y="167" fill="#22C55E" font-size="10" text-anchor="middle">Low Variance ✓</text>
  </g>
  
  <!-- Low Bias, High Variance -->
  <g>
    
    <circle cx="220" cy="80" r="50" fill="none" stroke="#444" stroke-width="1"/>
    <circle cx="220" cy="80" r="35" fill="none" stroke="#444" stroke-width="1"/>
    <circle cx="220" cy="80" r="20" fill="none" stroke="#444" stroke-width="1"/>
    <circle cx="220" cy="80" r="5" fill="#22C55E"/>
    <circle cx="186.91326569842283" cy="100.30937196651715" r="4" fill="#F472B6"/>
    <circle cx="207.11753939845562" cy="43.86602534609928" r="4" fill="#F472B6"/>
    <circle cx="243.25587972116372" cy="95.18908691964691" r="4" fill="#F472B6"/>
    <circle cx="247.2602311130036" cy="80.03713375351067" r="4" fill="#F472B6"/>
    <circle cx="239.41264107588998" cy="79.49445353993119" r="4" fill="#F472B6"/>
    <circle cx="214.32516969929463" cy="90.93629583281582" r="4" fill="#F472B6"/>
    <circle cx="203.9762152500469" cy="76.70902584373843" r="4" fill="#F472B6"/>
    <circle cx="215.59180880229397" cy="80.13342137865001" r="4" fill="#F472B6"/>
    <text x="220" y="155" fill="#F59E0B" font-size="10" text-anchor="middle">Low Bias</text>
    <text x="220" y="167" fill="#F59E0B" font-size="10" text-anchor="middle">High Variance</text>
  </g>
  
  <!-- High Bias, Low Variance -->
  <g>
    
    <circle cx="80" cy="220" r="50" fill="none" stroke="#444" stroke-width="1"/>
    <circle cx="80" cy="220" r="35" fill="none" stroke="#444" stroke-width="1"/>
    <circle cx="80" cy="220" r="20" fill="none" stroke="#444" stroke-width="1"/>
    <circle cx="80" cy="220" r="5" fill="#22C55E"/>
    <circle cx="103.40025493163466" cy="242.60159779761958" r="4" fill="#F472B6"/>
    <circle cx="104.41205098070797" cy="243.19362287774626" r="4" fill="#F472B6"/>
    <circle cx="103.01211215417952" cy="246.6397035934507" r="4" fill="#F472B6"/>
    <circle cx="102.80346788294754" cy="241.65516638831284" r="4" fill="#F472B6"/>
    <circle cx="106.57448150457962" cy="241.35123095372617" r="4" fill="#F472B6"/>
    <circle cx="104.67961623043793" cy="239.96751675111278" r="4" fill="#F472B6"/>
    <circle cx="95.27606243437687" cy="243.26073531626457" r="4" fill="#F472B6"/>
    <circle cx="105.00403801696098" cy="240.01523672005231" r="4" fill="#F472B6"/>
    <text x="80" y="295" fill="#F59E0B" font-size="10" text-anchor="middle">High Bias</text>
    <text x="80" y="307" fill="#F59E0B" font-size="10" text-anchor="middle">Low Variance</text>
  </g>
  
  <!-- High Bias, High Variance -->
  <g>
    
    <circle cx="220" cy="220" r="50" fill="none" stroke="#444" stroke-width="1"/>
    <circle cx="220" cy="220" r="35" fill="none" stroke="#444" stroke-width="1"/>
    <circle cx="220" cy="220" r="20" fill="none" stroke="#444" stroke-width="1"/>
    <circle cx="220" cy="220" r="5" fill="#22C55E"/>
    <circle cx="241.02540837302755" cy="249.82944504210025" r="4" fill="#F472B6"/>
    <circle cx="234.53537359594614" cy="235.27551465118205" r="4" fill="#F472B6"/>
    <circle cx="238.4107857347202" cy="259.393825025643" r="4" fill="#F472B6"/>
    <circle cx="272.8969906146471" cy="234.86922612071763" r="4" fill="#F472B6"/>
    <circle cx="246.60480231993768" cy="249.62956275587885" r="4" fill="#F472B6"/>
    <circle cx="237.53911277679035" cy="245.20039695177047" r="4" fill="#F472B6"/>
    <circle cx="243.11277900498982" cy="225.67042428422667" r="4" fill="#F472B6"/>
    <circle cx="241.09265264187246" cy="248.43689476541388" r="4" fill="#F472B6"/>
    <text x="220" y="295" fill="#EF4444" font-size="10" text-anchor="middle">High Bias</text>
    <text x="220" y="307" fill="#EF4444" font-size="10" text-anchor="middle">High Variance ✗</text>
  </g>
</svg>