<svg xmlns="http://www.w3.org/2000/svg" viewBox="0 0 250 250" width="250" height="250">
  <defs>
    <marker id="arrow" markerWidth="6" markerHeight="6" refX="5" refY="3" orient="auto">
      <polygon points="0 0, 6 3, 0 6" fill="#F472B6"/>
    </marker>
  </defs>
  
  <!-- Contour ellipses -->
  <ellipse cx="125" cy="125" rx="110" ry="80" fill="none" stroke="#334" stroke-width="1.5"/>
  <ellipse cx="125" cy="125" rx="80" ry="55" fill="none" stroke="#445" stroke-width="1.5"/>
  <ellipse cx="125" cy="125" rx="50" ry="35" fill="none" stroke="#556" stroke-width="1.5"/>
  <ellipse cx="125" cy="125" rx="20" ry="15" fill="none" stroke="#667" stroke-width="1.5"/>
  
  <!-- Minimum point -->
  <circle cx="125" cy="125" r="5" fill="#22C55E"/>
  
  <!-- Descent path -->
  <line x1="212.5" y1="50" x2="184.4283014998269" y2="75.19689851555229" stroke="#F472B6" stroke-width="2" marker-end="url(#arrow)"/>
  <circle cx="212.5" cy="50" r="4" fill="#F472B6"/>
  <line x1="184.4283014998269" y1="75.19689851555229" x2="168.22977723963356" y2="91.91740342051826" stroke="#F472B6" stroke-width="2" marker-end="url(#arrow)"/>
  <circle cx="184.4283014998269" cy="75.19689851555229" r="4" fill="#F472B6"/>
  <line x1="168.22977723963356" y1="91.91740342051826" x2="163.69257651710646" y2="104.13167518394475" stroke="#F472B6" stroke-width="2" marker-end="url(#arrow)"/>
  <circle cx="168.22977723963356" cy="91.91740342051826" r="4" fill="#F472B6"/>
  <line x1="163.69257651710646" y1="104.13167518394475" x2="149.1684106920374" y2="101.5046737456644" stroke="#F472B6" stroke-width="2" marker-end="url(#arrow)"/>
  <circle cx="163.69257651710646" cy="104.13167518394475" r="4" fill="#F472B6"/>
  <line x1="149.1684106920374" y1="101.5046737456644" x2="142.87009992848868" y2="105.61879154055477" stroke="#F472B6" stroke-width="2" marker-end="url(#arrow)"/>
  <circle cx="149.1684106920374" cy="101.5046737456644" r="4" fill="#F472B6"/>
  <line x1="142.87009992848868" y1="105.61879154055477" x2="133.77055344038382" y2="116.7567186231188" stroke="#F472B6" stroke-width="2" marker-end="url(#arrow)"/>
  <circle cx="142.87009992848868" cy="105.61879154055477" r="4" fill="#F472B6"/>
  <line x1="133.77055344038382" y1="116.7567186231188" x2="139.9944641883595" y2="117.43576621417525" stroke="#F472B6" stroke-width="2" marker-end="url(#arrow)"/>
  <circle cx="133.77055344038382" cy="116.7567186231188" r="4" fill="#F472B6"/>
  <line x1="139.9944641883595" y1="117.43576621417525" x2="128.6967434135829" y2="128.52305882016992" stroke="#F472B6" stroke-width="2" marker-end="url(#arrow)"/>
  <circle cx="139.9944641883595" cy="117.43576621417525" r="4" fill="#F472B6"/>
  <circle cx="128.6967434135829" cy="128.52305882016992" r="4" fill="#F472B6"/>
  
  <!-- Labels -->
  <text x="217.5" y="42" fill="#F472B6" font-size="12">start</text>
  <text x="135" y="115" fill="#22C55E" font-size="12">min</text>
</svg>