<svg xmlns="http://www.w3.org/2000/svg" viewBox="0 0 300 150" width="300" height="150">
  <!-- Axis -->
  <line x1="20" y1="130" x2="280" y2="130" 
        stroke="#666" stroke-width="2"/>
  
  <!-- Curve -->
  <path d="M 20 129.96309911093073 L 23.250000000000004 129.94522490363465 L 26.500000000000007 129.91950173392314 L 29.750000000000007 129.88287571396654 L 33.000000000000014 129.83128082527432 L 36.250000000000014 129.75937597699988 L 39.500000000000014 129.66024130509396 L 42.75000000000002 129.52503759916036 L 46.00000000000002 129.34263748154933 L 49.25000000000003 129.09924288841884 L 52.50000000000003 128.77801038079335 L 55.75000000000003 128.35871353240253 L 59.000000000000036 127.81747957811926 L 62.250000000000036 127.12664491606898 L 65.50000000000004 126.25477997919405 L 68.75000000000004 125.16693730142516 L 72.00000000000004 123.82517608824527 L 75.25000000000006 122.1894110886399 L 78.50000000000006 120.21862207946747 L 81.75000000000006 117.87244221650658 L 85.00000000000006 115.11311884397256 L 88.25000000000006 111.90780977651289 L 91.50000000000006 108.23114310080231 L 94.75000000000007 104.06793157885492 L 98.00000000000007 99.41589695014855 L 101.25000000000007 94.28822859058141 L 104.50000000000007 88.71577912634592 L 107.75000000000007 82.74869059681855 L 111.00000000000009 76.45725184440296 L 114.25000000000009 69.9318130696318 L 117.50000000000009 63.28162743161015 L 120.75000000000007 56.63255080556765 L 124.00000000000007 50.12360592189384 L 127.25000000000009 43.90250079339434 L 130.50000000000009 38.12027674475995 L 133.75000000000009 32.925340715694404 L 137.00000000000006 28.457201897469986 L 140.25000000000006 24.84027699835893 L 143.50000000000009 22.17814593625687 L 146.75000000000009 20.548627288804923 L 150.00000000000009 20.000000000000014 L 153.25000000000009 20.54862728880498 L 156.50000000000009 22.178145936256982 L 159.75000000000009 24.840276998359087 L 163.00000000000006 28.45720189747017 L 166.25000000000009 32.92534071569463 L 169.50000000000009 38.12027674476022 L 172.75000000000009 43.90250079339465 L 176.00000000000009 50.12360592189415 L 179.25000000000006 56.63255080556799 L 182.50000000000009 63.28162743161049 L 185.75000000000009 69.93181306963213 L 189.00000000000009 76.45725184440329 L 192.25000000000009 82.74869059681886 L 195.50000000000009 88.7157791263462 L 198.75000000000009 94.2882285905817 L 202.0000000000001 99.41589695014879 L 205.25000000000009 104.06793157885515 L 208.5000000000001 108.23114310080251 L 211.75000000000009 111.90780977651308 L 215.0000000000001 115.1131188439727 L 218.2500000000001 117.87244221650671 L 221.50000000000009 120.21862207946756 L 224.7500000000001 122.18941108863999 L 228.0000000000001 123.82517608824534 L 231.2500000000001 125.16693730142522 L 234.5000000000001 126.25477997919411 L 237.7500000000001 127.12664491606903 L 241.00000000000014 127.81747957811929 L 244.2500000000001 128.35871353240256 L 247.5000000000001 128.77801038079338 L 250.75000000000014 129.09924288841887 L 254.00000000000014 129.34263748154936 L 257.2500000000001 129.52503759916036 L 260.5000000000001 129.66024130509396 L 263.7500000000001 129.75937597699988 L 267.00000000000017 129.83128082527432 L 270.2500000000001 129.88287571396654 L 273.5000000000001 129.91950173392314 L 276.75000000000017 129.94522490363465" fill="none" stroke="#22D3EE" stroke-width="3"/>
  <!-- 68% area -->
  <path d="M 117.50000000000009 63.28162743161015 L 120.75000000000007 56.63255080556765 L 124.00000000000007 50.12360592189384 L 127.25000000000009 43.90250079339434 L 130.50000000000009 38.12027674475995 L 133.75000000000009 32.925340715694404 L 137.00000000000006 28.457201897469986 L 140.25000000000006 24.84027699835893 L 143.50000000000009 22.17814593625687 L 146.75000000000009 20.548627288804923 L 150.00000000000009 20.000000000000014 L 153.25000000000009 20.54862728880498 L 156.50000000000009 22.178145936256982 L 159.75000000000009 24.840276998359087 L 163.00000000000006 28.45720189747017 L 166.25000000000009 32.92534071569463 L 169.50000000000009 38.12027674476022 L 172.75000000000009 43.90250079339465 L 176.00000000000009 50.12360592189415 L 179.25000000000006 56.63255080556799 L 182.5 130 L 117.5 130 Z" 
        fill="#22D3EE" fill-opacity="0.3"/>
  <text x="150" y="147" fill="#888" font-size="12" text-anchor="middle">μ</text>
  <text x="117.5" y="147" fill="#888" font-size="10" text-anchor="middle">-σ</text>
  <text x="182.5" y="147" fill="#888" font-size="10" text-anchor="middle">+σ</text>
</svg>